<svg xmlns="http://www.w3.org/2000/svg" viewBox="0 0 115 100" width="100px" height="100px" data-original="3494086386815991" style="--bg: transparent; --theme-cyan: #00afc4; --body: var(--theme-cyan); --body-second: oklch(from var(--theme-cyan) calc(l - 0.1) calc(c + 0.05) h); --body-third: oklch(from var(--theme-cyan) calc(l + 0.1) calc(c + 0.05) h); --eyes: white; --pupils: black; --stroke: black; --beak: var(--theme-cyan);" class="passerine">

  <g class="bg">
    <rect width="100" height="100" fill="var(--bg)"></rect>
  </g>
   <path d="M 50 63 l 7 29 l 5 -2 l -4 3 l 4 0 l -5 2 l 5 1 l -7 0 l 1 -4 l -7 -29 Z" stroke="var(--stroke)" fill="var(--body-second)"></path>
    <path d="M 60 63 l 7 27 l 5 -2 l -4 3 l 4 0 l -5 2 l 5 1 l -7 0 l 1 -4 l -7 -27 Z" stroke="var(--stroke)" fill="var(--body-second)"></path>
  <g class="body">
   <g> <path d="M75 11 C84.18088471102885 14.965101568569002, 88.42379402612742 38.46349634105337, 86.0039970391179 71.66133232002302 C62.42022867076681 83.48942987875091, 42.125987012001914 87.80947448090136, 37.23663918213992 81.46559030626877 C23.629729335865033 85.56509486488257, 20.7740384423617 70.92393222361208, 29.768354552364375 41.90847846863023 C34.058282524925026 26.95029586665699, 53.581107720404944 21.279947285392154, 70.41877786512808 8.017232263663534 C74.39853227927073 11.066946193349798, 74.7067931706824 10.93847993889422, 75.16486070824362 11.164900808495645 " stroke="none " stroke-width="0 " fill="var(--body) "> </path> <path d="M75 11 C83.25367874942675 14.047124862924514, 84.41405998124287 37.62088724024201, 83.63961083724178 74.45748647461528 M73.49161095787449 10.654277108090433 C83.92812218193981 12.512354279542432, 86.7479783683361 33.66412910917276, 83.06707022233567 72.92844676347023 M83 75 C58.332135842189004 80.69792064486793, 44.98812708429766 83.00612390719189, 35.210499545370624 81.01132875177925 M81.62723302249209 76.59313478638978 C56.88267583596539 82.30626945047409, 44.76330482374181 86.48391346002485, 39.09640016946822 82.73097345009833 M37 83 C21.827616722402016 85.38809096343668, 21.38214779725609 71.14107544012408, 32.35180805826314 42.79647253250005 M38.051729458086236 84.29632704099575 C22.912077294430578 84.1075553643653, 21.69092584697868 69.55510422544549, 32.55386092388555 43.60595351289613 M32 42 C38.386677365655096 29.54847378773323, 50.84958278709397 18.160068654096282, 73.35444146851924 10.377324778038757 M30.902734265287574 40.104781369303524 C34.58298392512676 28.651427149443037, 52.79666469314364 17.46984234018507, 76.13057608932392 11.332325573818673 M73.9806320665384 10.979366531570342 C74.28747975246971 11.080210571295941, 74.40653519788331 11.019304376534002, 75.03397779592487 11.048128451208779 M73.99720448247383 11.018355293862689 C74.26445613824217 10.967318405915329, 74.47269566478947 10.968235758597913, 74.95367610602248 11.03556150165957 " stroke="var(--stroke) " stroke-width="1 " fill="none "> </path> </g>
  </g>

  <g class="decorations">
    <g> <path d="M57 21 C55.232434135375705 15.79944175104613, 60.12787545966936 6.448398015123766, 65.3995973746203 2.051272077026325 C68.86026604696224 12.648554977482462, 75.59802225677842 5.32620547291582, 77.06681370471134 2.883828836784713 C77.37484299121869 9.309209926359715, 77.94472165873064 5.100868120787403, 74.76038610339018 -0.8709074947218711 C81.71937977502527 6.520421756122835, 81.54154327001395 12.674031197271637, 81.66597122729924 19.839196061193356 C67.84595921169442 21.76439692359517, 66.79046352492426 22.763855398030564, 54.980113038316745 18.925454977282964 " stroke="none " stroke-width="0 " fill="var(--body-third) "> </path> <path d="M57 21 C57.650148118813014 13.334962947119454, 61.042469498150005 6.317766296084796, 69.31260291575066 2.7943642504116237 M56.259906369423504 22.35509708952888 C55.8704720192903 14.920112382242253, 59.48754144285637 6.415426163965245, 67.84945959326974 3.602529472939907 M68 2 C69.47651234205507 12.42162643540263, 74.69704330431387 0.7840908340007955, 72.71427158104095 3.9434470944647666 M67.82929254844903 0.6084219846955845 C70.07913626924473 13.785835360916758, 72.7759191026596 -0.08314232817905776, 73.73836250558654 1.839759705718909 M74 2 C77.21027373110508 8.380008480359425, 78.76204178487546 7.407780661393809, 79.67093403739406 1.4733917576769846 M74.75956230285284 3.8866117340200343 C76.80811011633804 9.881289331837205, 78.99519282160233 7.412501670595418, 78.72987018087586 -0.026787231810630363 M78 1 C79.11295333570705 6.973967442354297, 78.44996702689913 12.16786937592861, 77.35829506719108 20.042692711216716 M78.63522812711876 1.5578420134068605 C80.6906300630228 7.252351695766035, 79.75915845502708 14.585965099441927, 79.86556026513847 16.719489947959715 M79.03341803212108 18.215212543618744 C70.17974681272088 20.76294329535602, 63.484426893974856 22.14932534990742, 57.26689281051566 21.5702938156537 M78.5893176493907 19.48588947366286 C74.64627438187797 19.024372377603537, 68.61988441677863 19.8470126349929, 57.182686888889506 21.867076431247828 " stroke="var(--stroke) " stroke-width="1 " fill="none "> </path> </g>

  </g>

  <g class="wings">
    <path transform-origin="70 60" d="M 4 87 q 19 -37 39 -40 q 19 0 29 7 q 7 6 -22 13 q -26 -2 -49 32 Z" stroke="var(--stroke)" fill="var(--body-second)"></path>
  </g>
  <g case="1" class="eyes">
      <g> <path d="M71.59410736963827 25.026742542313993 C72.51677398421653 25.204994985803527, 73.38139570671638 25.94648177295448, 73.94384595500837 26.81688299370864 C74.50629620330037 27.687284214462796, 74.96010482913954 29.146459291454526, 74.96880885939025 30.24914986683894 C74.97751288964096 31.351840442223356, 74.66782977421178 32.58356983251266, 73.99607013651263 33.433026446015134 C73.32431049881347 34.28248305951761, 72.12055597358858 35.248310977678436, 70.93825103319534 35.34588954785379 C69.7559460928021 35.44346811802914, 67.9044140886657 34.73642730864234, 66.90224049415323 34.018497867067246 C65.90006689964076 33.30056842549215, 65.10233982144825 32.04519186941119, 64.92520946612052 31.038312898403234 C64.74807911079279 30.031433927395277, 65.43373137123503 28.828237842193552, 65.83945836218686 27.97722404101951 C66.2451853531387 27.12621023984547, 66.35867485621812 26.3797904488375, 67.3595714118315 25.93223009135898 C68.36046796744488 25.484669733880462, 71.01743150865136 25.380107900246887, 71.84483769586713 25.291861896148394 C72.6722438830829 25.2036158920499, 72.36829965565751 25.373529790980296, 72.3240085351261 25.40275406676802 M69.35709277529564 25.488793484550055 C70.28533107937534 25.485624776629294, 72.17140853150622 26.12863998581381, 73.06861666894982 26.815864187630147 C73.96582480639341 27.503088389446486, 74.46969049999468 28.57299526898165, 74.74034159995726 29.61213869544809 C75.01099269991984 30.651282121914527, 75.07162774567826 32.18845911899645, 74.69252326872527 33.05072474642877 C74.31341879177228 33.91299037386109, 73.5630129789433 34.41176705343214, 72.46571473823931 34.78573246004202 C71.36841649753532 35.1596978666519, 69.35433561292086 35.6911847861508, 68.10873382450133 35.294517186088015 C66.8631320360818 34.89784958602523, 65.49874551663132 33.420383089617, 64.99210400772206 32.405726859665315 C64.48546249881281 31.39107062971363, 64.70065900425438 30.14036467890613, 65.06888477104577 29.20657980637792 C65.43711053783717 28.27279493384971, 66.44771512638515 27.571758503095506, 67.20145860847042 26.803017624496057 C67.95520209055569 26.03427674589661, 69.25509009584918 24.84115971107422, 69.59134566355739 24.594134534781226 C69.9276012312656 24.347109358488233, 69.24827858720909 25.14790714247823, 69.21899201471965 25.320866566738097 " stroke="none " stroke-width="0 " fill="var(--eyes) "> </path> <path d="M68.91562004063832 25.132997018684097 C69.96102847183225 24.853930913453276, 71.75656331166667 24.608351843881675, 72.75484733862231 25.166066620224157 C73.75313136557796 25.72378139656664, 74.56145307451273 27.37843412273697, 74.90532420237216 28.479285676739 C75.24919533023159 29.58013723074103, 75.20328202535926 30.861520335101602, 74.81807410577888 31.771175944236337 C74.4328661861985 32.68083155337107, 73.47212203359997 33.40128638568594, 72.5940766848899 33.9372193315474 C71.71603133617982 34.47315227740885, 70.60215400358389 34.998867376890075, 69.54980201351843 34.98677361940506 C68.49745002345297 34.97467986192004, 67.11070607182495 34.672359184640335, 66.27996474449714 33.86465678663726 C65.44922341716932 33.05695438863419, 64.68238197714234 31.279958594222272, 64.56535404955156 30.140559231386618 C64.44832612196078 29.001159868550964, 64.88759000222204 27.804989102141413, 65.57779717895245 27.02826060962335 C66.26800435568286 26.251532117105285, 68.15475522324869 25.838249876139706, 68.70659710993404 25.48018827627823 C69.25843899661939 25.122126676416755, 68.8176678291587 24.823325881377478, 68.88884849906458 24.879891010454493 M69.1930225265243 25.095709629075902 C70.28167875382464 24.72666608827737, 72.29328633657977 24.889609221840693, 73.22604610952187 25.459348676656553 C74.15880588246398 26.029088131472413, 74.43424512702589 27.399579758653367, 74.78958116417692 28.514146357971068 C75.14491720132796 29.62871295728877, 75.86454429117838 31.16464346390071, 75.35806233242812 32.14674827256277 C74.85158037367786 33.128853081224825, 72.82772640380804 33.90152612178455, 71.75068941167535 34.40677520994342 C70.67365241954266 34.91202429810229, 69.9272914853265 35.50823407552987, 68.89584037963195 35.178242801515985 C67.86438927393739 34.8482515275021, 66.26064220020886 33.2910006309205, 65.561982777508 32.42682756586012 C64.86332335480715 31.562654500799745, 64.70931320807719 31.013882511721427, 64.7038838434268 29.993204411153727 C64.6984544787764 28.972526310586026, 64.76365010868533 27.034951413256763, 65.52940658960564 26.30275896245392 C66.29516307052596 25.57056651165108, 68.72566574980448 25.90183971173556, 69.29842272894871 25.600049706336684 C69.87117970809294 25.29825970093781, 69.01327833310327 24.471191759190074, 68.96594846447104 24.49201893006067 " stroke="var(--pupils) " stroke-width="1 " fill="none "> </path> </g>
      <circle cx="70" cy="30" r="3" fill="var(--pupils)" transform="translate(4, 0)" transform-origin="70 30" class="pupil"></circle>
    </g>

  <g class="beak">
    <path data-case="7" d="M 80 41 q 12 3 29 -2 q -12 -4 -30 -7 l 2 5 Z" stroke="var(--stroke)" fill="var(--beak)"></path>

  </g>
</svg>